<?xml version="1.0" encoding="UTF-8" standalone="no"?><!DOCTYPE svg PUBLIC "-//W3C//DTD SVG 1.1//EN" "http://www.w3.org/Graphics/SVG/1.1/DTD/svg11.dtd"><svg width="100%" height="100%" viewBox="0 0 284 244" version="1.1" xmlns="http://www.w3.org/2000/svg" xmlns:xlink="http://www.w3.org/1999/xlink" xml:space="preserve" xmlns:serif="http://www.serif.com/" style="fill-rule:evenodd;clip-rule:evenodd;stroke-linejoin:round;stroke-miterlimit:2;"><g><path d="M88.8,198.15c-2.775,0.6 -6.075,1.2 -8.775,1.725c0.375,-1.5 1.425,-5.85 2.175,-8.625l-2.1,-2.175l-2.475,10.875c-0,0.15 -0.075,0.3 -0.225,0.45l-4.5,4.275l1.8,1.95l4.575,-4.35c0.15,-0.15 0.225,-0.225 0.375,-0.225l11.025,-1.875l-1.875,-2.025Z" style="fill:#b4ac8f;fill-rule:nonzero;"/><path d="M100.5,220.05c-1.425,2.025 -3.15,2.925 -5.85,1.125c-2.7,-1.875 -2.55,-3.9 -1.2,-5.85l5.775,-8.4l-2.175,-1.5l-5.85,8.55c-2.1,3 -1.725,5.925 2.4,8.775c4.425,3 7.275,1.8 9.15,-0.975l5.775,-8.475l-2.25,-1.5l-5.775,8.25Z" style="fill:#b4ac8f;fill-rule:nonzero;"/><path d="M112.275,233.1l10.8,4.275l1.05,-1.575l-8.7,-3.525l2.025,-5.1l7.95,3.15l0.675,-1.8l-7.875,-3.15l1.8,-4.425l8.25,3.3l0.675,-1.725l-10.65,-4.275l-6,14.85Z" style="fill:#b4ac8f;fill-rule:nonzero;"/><path d="M144.15,225.975c-3.525,-0.6 -6.15,0.6 -6.6,3.15c-0.375,2.25 0.9,3.675 4.725,5.4c3,1.35 3.9,2.25 3.6,3.975c-0.3,1.65 -1.8,2.325 -4.05,1.95c-2.175,-0.375 -3.525,-1.65 -3.6,-3.6l-2.625,-0.45c-0.225,2.925 1.8,5.1 5.7,5.85c4.275,0.75 6.75,-0.825 7.2,-3.45c0.375,-2.175 -0.525,-3.9 -4.95,-5.925c-2.775,-1.275 -3.675,-1.95 -3.45,-3.375c0.225,-1.35 1.425,-2.025 3.525,-1.65c2.25,0.375 3.075,1.575 3.075,3.15l2.55,0.45c0.45,-2.475 -0.975,-4.725 -5.1,-5.475Z" style="fill:#b4ac8f;fill-rule:nonzero;"/><path d="M167.925,242.1c-3.9,0.15 -5.25,-3 -5.325,-6.3c-0.15,-3.3 1.2,-6.3 4.8,-6.45c2.775,-0.075 3.9,1.2 4.425,2.925l2.625,-0.075c-0.45,-2.625 -2.55,-4.875 -7.05,-4.725c-5.4,0.225 -7.725,4.125 -7.575,8.4c0.15,4.725 2.4,8.25 8.1,8.025c4.575,-0.15 6.45,-2.625 6.9,-5.25l-2.625,0.075c-0.45,1.8 -1.5,3.3 -4.275,3.375Z" style="fill:#b4ac8f;fill-rule:nonzero;"/><path d="M198.975,234.3c-0.525,-2.1 -1.65,-3.15 -3.675,-3.15c1.35,-0.825 2.625,-2.175 2.025,-4.425c-0.675,-2.625 -3.375,-3.45 -6.675,-2.55l-6.675,1.725l3.975,15.45l2.55,-0.675l-1.8,-6.9l3.075,-0.825c2.925,-0.75 4.05,-0.15 4.575,1.95l0.075,0.3c0.45,1.65 0.825,3 1.275,3.6l2.55,-0.675c-0.45,-0.825 -0.825,-2.175 -1.2,-3.6l-0.075,-0.225Zm-7.425,-3.15l-3.3,0.825l-1.275,-5.025l3.825,-0.975c2.1,-0.525 3.6,-0.075 3.975,1.5c0.525,2.175 -0.975,3.15 -3.225,3.675Z" style="fill:#b4ac8f;fill-rule:nonzero;"/><path d="M208.708,217.966l-2.391,1.086l6.608,14.545l2.39,-1.086l-6.607,-14.545Z" style="fill:#b4ac8f;"/><path d="M223.95,208.725l-5.4,3.675l9,13.2l2.175,-1.5l-3.825,-5.55l2.925,-2.025c3.225,-2.175 4.575,-5.025 2.775,-7.65c-1.575,-2.4 -4.725,-2.175 -7.65,-0.15Zm3.825,6.375l-2.775,1.95l-3.15,-4.65l2.85,-1.95c1.95,-1.35 3.75,-1.5 4.8,-0c1.2,1.8 0.225,3.3 -1.725,4.65Z" style="fill:#b4ac8f;fill-rule:nonzero;"/><path d="M246.15,191.325l-1.425,-1.35l-9.45,9.9l1.425,1.275l3.75,-3.975l10.2,9.75l1.875,-1.95l-10.2,-9.675l3.825,-3.975Z" style="fill:#b4ac8f;fill-rule:nonzero;"/><path d="M182.1,1.425c-1.575,-0.225 -3.15,-0.45 -4.725,-0.675l-0,11.175c16.8,18.15 27.675,41.925 29.25,68.175l-103.65,-0c0,-0 -10.5,0.525 -10.5,9.225c0,9.075 8.325,10.575 10.425,10.575l52.05,0c0,0 6.525,-0.375 6.525,4.575c0,4.725 -4.8,4.5 -6.45,4.5l-106.125,0c8.25,-55.725 51.9,-99.9 107.325,-108.975c-59.775,3.15 -108.15,49.875 -113.925,108.975l-30.825,0c-0,0 -11.475,-1.35 -11.475,8.625c-0,9.975 8.625,9.6 11.025,9.6l30.825,0c1.125,21.225 7.8,41.1 18.525,58.05l0.075,-0.075c-6.6,-13.425 -10.875,-28.2 -12.45,-43.8l56.475,0c2.7,0 10.275,-0.375 10.275,-9.15c-0,-8.7 -9.3,-8.925 -9.3,-8.925l-76.35,0c-0,0 -6.675,0.525 -6.675,-4.8c-0,-5.325 4.35,-5.55 6.3,-5.55l142.875,0c0,0 10.95,1.2 10.95,-8.925c-0,-9 -9.6,-8.625 -13.125,-8.625l-48.825,0c0,0 -7.275,0.3 -7.275,-5.175c0,-5.475 6.15,-5.175 7.2,-5.175l86.025,0l-0,1.65c-0,28.875 -11.175,55.2 -29.475,74.85c-16.2,17.475 -38.025,29.7 -62.625,33.825c4.725,2.925 9.675,5.475 14.85,7.65c17.925,-5.1 34.2,-14.25 47.7,-26.4c11.025,-9.9 20.25,-21.9 27.075,-35.25l53.325,0l0,-5.025l-50.925,0c6.825,-15.15 10.65,-31.95 10.65,-49.65l0,-1.65l49.425,0c3.825,11.175 5.925,23.1 5.925,35.55c0,20.625 -5.7,39.975 -15.675,56.55l8.4,6.825c11.4,-18.45 18,-40.125 18,-63.375c0.3,-59.925 -43.65,-109.875 -101.1,-119.175Zm-87.975,131.325c0,4.875 -4.725,5.175 -4.725,5.175l-41.55,-0c-0.225,-3.225 -0.375,-6.45 -0.375,-9.675l0,-1.05l42.375,-0c0.75,0.075 4.275,0.675 4.275,5.55Zm123.225,-52.65c-1.35,-24.3 -9.825,-46.65 -23.475,-65.025c32.475,9.6 58.8,33.825 71.25,65.025l-47.775,-0Z" style="fill:#b4ac8f;fill-rule:nonzero;"/></g></svg>